# xmcd
#
# Track frame offsets:
# 183
# 22153
# 44790
# 70860
# 98785
# 117653
# 137728
# 160938
# 182648
#
# Disc length: 2659 seconds
#
# Revision: 1
# Processed by: cddbd v1.4PL0 Copyright (c) Steve Scherf et al.
# Submitted via: CedeCatalogueitor 2.5 http://usuarios.lycos.es/kakasboy
#
DISCID=840a6109
DTITLE=Juan Pardo - Gallo De Pelea
DYEAR=1989
DGENRE=
TTITLE0=Amada Mia
TTITLE1=Mala persona
TTITLE2=Morire por ti
TTITLE3=Gallo de pelea
TTITLE4=Abrazadito a la luna
TTITLE5=Dejame ser tu hombre
TTITLE6=Se me escapo el amor
TTITLE7=Como te llamas
TTITLE8=Mentira gaviota
EXTD=
EXTT0=
EXTT1=
EXTT2=
EXTT3=
EXTT4=
EXTT5=
EXTT6=
EXTT7=
EXTT8=
PLAYORDER=
